<mxfile modified="2022-05-02T00:49:40.705Z" host="app.diagrams.net" agent="5.0 (Windows NT 10.0; Win64; x64) AppleWebKit/537.36 (KHTML, like Gecko) Chrome/100.0.4896.127 Safari/537.36 Edg/100.0.1185.50" etag="2Ezx-78Q8jAhXYDrWEDC" compressed="false" version="17.5.0" type="google">
  <diagram id="OiE_WIeiyFu7MGLe8vVh" name="User Context/User Groups">
    <mxGraphModel grid="1" page="1" gridSize="10" guides="1" tooltips="1" connect="1" arrows="1" fold="1" pageScale="1" pageWidth="850" pageHeight="1100" math="0" shadow="0">
      <root>
        <mxCell id="1xYJOBjyP96TDNRi-POg-0" />
        <mxCell id="1xYJOBjyP96TDNRi-POg-1" value="Diagram" parent="1xYJOBjyP96TDNRi-POg-0" />
        <mxCell id="1xYJOBjyP96TDNRi-POg-5" value="Organisation" style="rounded=0;whiteSpace=wrap;html=1;strokeWidth=1;fillColor=none;fontFamily=Helvetica;fontSize=12;fontColor=#000000;align=center;strokeColor=#000000;" vertex="1" parent="1xYJOBjyP96TDNRi-POg-1">
          <mxGeometry x="120" y="220" width="120" height="20" as="geometry" />
        </mxCell>
        <mxCell id="1xYJOBjyP96TDNRi-POg-11" value="School Group" style="rounded=0;whiteSpace=wrap;html=1;strokeWidth=1;fillColor=#f5f5f5;fontFamily=Helvetica;fontSize=12;fontColor=#333333;align=center;strokeColor=#666666;" vertex="1" parent="1xYJOBjyP96TDNRi-POg-1">
          <mxGeometry x="425" y="190" width="95" height="20" as="geometry" />
        </mxCell>
        <mxCell id="1xYJOBjyP96TDNRi-POg-12" value="School" style="rounded=0;whiteSpace=wrap;html=1;strokeWidth=1;fillColor=none;fontFamily=Helvetica;fontSize=12;fontColor=#000000;align=center;strokeColor=#000000;" vertex="1" parent="1xYJOBjyP96TDNRi-POg-1">
          <mxGeometry x="440" y="220" width="80" height="20" as="geometry" />
        </mxCell>
        <mxCell id="1xYJOBjyP96TDNRi-POg-13" value="School" style="rounded=0;whiteSpace=wrap;html=1;strokeWidth=1;fillColor=none;fontFamily=Helvetica;fontSize=12;fontColor=#000000;align=center;strokeColor=#000000;" vertex="1" parent="1xYJOBjyP96TDNRi-POg-1">
          <mxGeometry x="440" y="250" width="80" height="20" as="geometry" />
        </mxCell>
        <mxCell id="1xYJOBjyP96TDNRi-POg-14" value="Intermediate" style="rounded=0;whiteSpace=wrap;html=1;strokeWidth=1;fillColor=none;fontFamily=Helvetica;fontSize=12;fontColor=#000000;align=center;strokeColor=#000000;" vertex="1" parent="1xYJOBjyP96TDNRi-POg-1">
          <mxGeometry x="440" y="400" width="80" height="20" as="geometry" />
        </mxCell>
        <mxCell id="1xYJOBjyP96TDNRi-POg-15" value="School of ..." style="rounded=0;whiteSpace=wrap;html=1;strokeWidth=1;fillColor=none;fontFamily=Helvetica;fontSize=12;fontColor=#000000;align=center;strokeColor=#000000;" vertex="1" parent="1xYJOBjyP96TDNRi-POg-1">
          <mxGeometry x="600" y="480" width="80" height="20" as="geometry" />
        </mxCell>
        <mxCell id="1xYJOBjyP96TDNRi-POg-17" value="&lt;p style=&quot;line-height: 90%&quot;&gt;University Group&lt;/p&gt;" style="rounded=0;whiteSpace=wrap;html=1;strokeWidth=1;fillColor=#f5f5f5;fontFamily=Helvetica;fontSize=12;fontColor=#333333;align=center;strokeColor=#666666;" vertex="1" parent="1xYJOBjyP96TDNRi-POg-1">
          <mxGeometry x="560" y="420" width="120" height="20" as="geometry" />
        </mxCell>
        <mxCell id="1xYJOBjyP96TDNRi-POg-18" value="University of" style="rounded=0;whiteSpace=wrap;html=1;strokeWidth=1;fillColor=none;fontFamily=Helvetica;fontSize=12;fontColor=#000000;align=center;strokeColor=#000000;" vertex="1" parent="1xYJOBjyP96TDNRi-POg-1">
          <mxGeometry x="580" y="450" width="100" height="20" as="geometry" />
        </mxCell>
        <mxCell id="1xYJOBjyP96TDNRi-POg-20" value="Consultant Group" style="rounded=0;whiteSpace=wrap;html=1;strokeWidth=1;fillColor=none;fontFamily=Helvetica;fontSize=12;fontColor=#000000;align=center;strokeColor=#000000;" vertex="1" parent="1xYJOBjyP96TDNRi-POg-1">
          <mxGeometry x="120" y="310" width="120" height="20" as="geometry" />
        </mxCell>
        <mxCell id="1xYJOBjyP96TDNRi-POg-21" value="Consultant Firm" style="rounded=0;whiteSpace=wrap;html=1;strokeWidth=1;fillColor=none;fontFamily=Helvetica;fontSize=12;fontColor=#000000;align=center;strokeColor=#000000;" vertex="1" parent="1xYJOBjyP96TDNRi-POg-1">
          <mxGeometry x="280" y="340" width="120" height="20" as="geometry" />
        </mxCell>
        <mxCell id="1xYJOBjyP96TDNRi-POg-22" value="Partners" style="rounded=0;whiteSpace=wrap;html=1;strokeWidth=1;fillColor=none;fontFamily=Helvetica;fontSize=12;fontColor=#000000;align=center;strokeColor=#000000;" vertex="1" parent="1xYJOBjyP96TDNRi-POg-1">
          <mxGeometry x="120" y="250" width="120" height="20" as="geometry" />
        </mxCell>
        <mxCell id="1xYJOBjyP96TDNRi-POg-23" value="Franchisee" style="rounded=0;whiteSpace=wrap;html=1;strokeWidth=1;fillColor=none;fontFamily=Helvetica;fontSize=12;fontColor=#000000;align=center;strokeColor=#000000;" vertex="1" parent="1xYJOBjyP96TDNRi-POg-1">
          <mxGeometry x="120" y="280" width="120" height="20" as="geometry" />
        </mxCell>
        <mxCell id="1xYJOBjyP96TDNRi-POg-24" value="Local Branch" style="rounded=0;whiteSpace=wrap;html=1;strokeWidth=1;fillColor=none;fontFamily=Helvetica;fontSize=12;fontColor=#000000;align=center;strokeColor=#000000;" vertex="1" parent="1xYJOBjyP96TDNRi-POg-1">
          <mxGeometry x="160" y="370" width="80" height="20" as="geometry" />
        </mxCell>
        <mxCell id="1xYJOBjyP96TDNRi-POg-25" value="Individual SMEs" style="rounded=0;whiteSpace=wrap;html=1;strokeWidth=1;fillColor=none;fontFamily=Helvetica;fontSize=12;fontColor=#000000;align=center;strokeColor=#000000;" vertex="1" parent="1xYJOBjyP96TDNRi-POg-1">
          <mxGeometry x="280" y="280" width="120" height="20" as="geometry" />
        </mxCell>
        <mxCell id="1xYJOBjyP96TDNRi-POg-27" value="Indigenous Groups" style="rounded=0;whiteSpace=wrap;html=1;strokeWidth=1;fillColor=none;fontFamily=Helvetica;fontSize=12;fontColor=#000000;align=center;strokeColor=#000000;" vertex="1" parent="1xYJOBjyP96TDNRi-POg-1">
          <mxGeometry x="280" y="310" width="120" height="20" as="geometry" />
        </mxCell>
        <mxCell id="1xYJOBjyP96TDNRi-POg-29" value="Organisation" style="rounded=0;whiteSpace=wrap;html=1;strokeWidth=1;fillColor=none;fontFamily=Helvetica;fontSize=12;fontColor=#000000;align=center;strokeColor=#000000;" vertex="1" parent="1xYJOBjyP96TDNRi-POg-1">
          <mxGeometry x="280" y="220" width="120" height="20" as="geometry" />
        </mxCell>
        <mxCell id="1xYJOBjyP96TDNRi-POg-30" value="Partner Agencies" style="rounded=0;whiteSpace=wrap;html=1;strokeWidth=1;fillColor=none;fontFamily=Helvetica;fontSize=12;fontColor=#000000;align=center;strokeColor=#000000;" vertex="1" parent="1xYJOBjyP96TDNRi-POg-1">
          <mxGeometry x="280" y="250" width="120" height="20" as="geometry" />
        </mxCell>
        <mxCell id="1xYJOBjyP96TDNRi-POg-31" value="Peak Body Group" style="rounded=0;whiteSpace=wrap;html=1;strokeWidth=1;fillColor=none;fontFamily=Helvetica;fontSize=12;fontColor=#000000;align=center;strokeColor=#000000;" vertex="1" parent="1xYJOBjyP96TDNRi-POg-1">
          <mxGeometry x="120" y="400" width="120" height="20" as="geometry" />
        </mxCell>
        <mxCell id="1xYJOBjyP96TDNRi-POg-32" value="Consultant Firm" style="rounded=0;whiteSpace=wrap;html=1;strokeWidth=1;fillColor=none;fontFamily=Helvetica;fontSize=12;fontColor=#000000;align=center;strokeColor=#000000;" vertex="1" parent="1xYJOBjyP96TDNRi-POg-1">
          <mxGeometry x="140" y="340" width="100" height="20" as="geometry" />
        </mxCell>
        <mxCell id="1xYJOBjyP96TDNRi-POg-33" value="&lt;p style=&quot;line-height: 90%&quot;&gt;Individual Consultants&lt;/p&gt;" style="rounded=0;whiteSpace=wrap;html=1;strokeWidth=1;fillColor=none;fontFamily=Helvetica;fontSize=12;fontColor=#000000;align=center;strokeColor=#000000;" vertex="1" parent="1xYJOBjyP96TDNRi-POg-1">
          <mxGeometry x="140" y="430" width="100" height="20" as="geometry" />
        </mxCell>
        <mxCell id="1xYJOBjyP96TDNRi-POg-34" value="SMEs" style="rounded=0;whiteSpace=wrap;html=1;strokeWidth=1;fillColor=none;fontFamily=Helvetica;fontSize=12;fontColor=#000000;align=center;strokeColor=#000000;" vertex="1" parent="1xYJOBjyP96TDNRi-POg-1">
          <mxGeometry x="280" y="370" width="120" height="20" as="geometry" />
        </mxCell>
        <mxCell id="1xYJOBjyP96TDNRi-POg-35" value="Universities" style="rounded=0;whiteSpace=wrap;html=1;strokeWidth=1;fillColor=none;fontFamily=Helvetica;fontSize=12;fontColor=#000000;align=center;strokeColor=#000000;" vertex="1" parent="1xYJOBjyP96TDNRi-POg-1">
          <mxGeometry x="280" y="400" width="120" height="20" as="geometry" />
        </mxCell>
        <mxCell id="1xYJOBjyP96TDNRi-POg-36" value="EL Center" style="rounded=0;whiteSpace=wrap;html=1;strokeWidth=1;fillColor=none;fontFamily=Helvetica;fontSize=12;fontColor=#000000;align=center;strokeColor=#000000;" vertex="1" parent="1xYJOBjyP96TDNRi-POg-1">
          <mxGeometry x="440" y="340" width="80" height="20" as="geometry" />
        </mxCell>
        <mxCell id="1xYJOBjyP96TDNRi-POg-37" value="Primary" style="rounded=0;whiteSpace=wrap;html=1;strokeWidth=1;fillColor=none;fontFamily=Helvetica;fontSize=12;fontColor=#000000;align=center;strokeColor=#000000;" vertex="1" parent="1xYJOBjyP96TDNRi-POg-1">
          <mxGeometry x="440" y="370" width="80" height="20" as="geometry" />
        </mxCell>
        <mxCell id="1xYJOBjyP96TDNRi-POg-38" value="Secondary" style="rounded=0;whiteSpace=wrap;html=1;strokeWidth=1;fillColor=none;fontFamily=Helvetica;fontSize=12;fontColor=#000000;align=center;strokeColor=#000000;" vertex="1" parent="1xYJOBjyP96TDNRi-POg-1">
          <mxGeometry x="440" y="430" width="80" height="20" as="geometry" />
        </mxCell>
        <mxCell id="1xYJOBjyP96TDNRi-POg-39" value="&lt;p style=&quot;line-height: 90%&quot;&gt;Regional Group&lt;/p&gt;" style="rounded=0;whiteSpace=wrap;html=1;strokeWidth=1;fillColor=#f5f5f5;fontFamily=Helvetica;fontSize=12;fontColor=#333333;align=center;strokeColor=#666666;" vertex="1" parent="1xYJOBjyP96TDNRi-POg-1">
          <mxGeometry x="425" y="310" width="95" height="20" as="geometry" />
        </mxCell>
        <mxCell id="1xYJOBjyP96TDNRi-POg-40" value="&lt;p style=&quot;line-height: 90% ; font-size: 11px&quot;&gt;&lt;font style=&quot;font-size: 11px&quot;&gt;National&lt;/font&gt; Interest Group&lt;/p&gt;" style="rounded=0;whiteSpace=wrap;html=1;strokeWidth=1;fillColor=#f5f5f5;fontFamily=Helvetica;fontSize=12;fontColor=#333333;align=center;strokeColor=#666666;" vertex="1" parent="1xYJOBjyP96TDNRi-POg-1">
          <mxGeometry x="560" y="190" width="120" height="20" as="geometry" />
        </mxCell>
        <mxCell id="1xYJOBjyP96TDNRi-POg-42" value="&lt;p style=&quot;line-height: 90%&quot;&gt;Internal School Group&lt;/p&gt;" style="rounded=0;whiteSpace=wrap;html=1;strokeWidth=1;fillColor=none;fontFamily=Helvetica;fontSize=12;fontColor=#000000;align=center;strokeColor=#000000;" vertex="1" parent="1xYJOBjyP96TDNRi-POg-1">
          <mxGeometry x="580" y="220" width="100" height="20" as="geometry" />
        </mxCell>
        <mxCell id="1xYJOBjyP96TDNRi-POg-44" value="&lt;p style=&quot;line-height: 90%&quot;&gt;Internal School Group&lt;/p&gt;" style="rounded=0;whiteSpace=wrap;html=1;strokeWidth=1;fillColor=none;fontFamily=Helvetica;fontSize=12;fontColor=#000000;align=center;strokeColor=#000000;" vertex="1" parent="1xYJOBjyP96TDNRi-POg-1">
          <mxGeometry x="580" y="250" width="100" height="20" as="geometry" />
        </mxCell>
        <mxCell id="1xYJOBjyP96TDNRi-POg-45" value="Project Group" style="rounded=0;whiteSpace=wrap;html=1;strokeWidth=1;fillColor=#f5f5f5;fontFamily=Helvetica;fontSize=12;fontColor=#333333;align=center;strokeColor=#666666;" vertex="1" parent="1xYJOBjyP96TDNRi-POg-1">
          <mxGeometry x="280" y="190" width="120" height="20" as="geometry" />
        </mxCell>
        <mxCell id="1xYJOBjyP96TDNRi-POg-47" value="Partners Group" style="rounded=0;whiteSpace=wrap;html=1;strokeWidth=1;fillColor=#f5f5f5;fontFamily=Helvetica;fontSize=12;fontColor=#333333;align=center;strokeColor=#666666;" vertex="1" parent="1xYJOBjyP96TDNRi-POg-1">
          <mxGeometry x="120" y="190" width="120" height="20" as="geometry" />
        </mxCell>
        <mxCell id="1xYJOBjyP96TDNRi-POg-50" value="&lt;p style=&quot;line-height: 90%&quot;&gt;Parent Groups&lt;/p&gt;" style="rounded=0;whiteSpace=wrap;html=1;strokeWidth=1;fillColor=#f5f5f5;fontFamily=Helvetica;fontSize=12;fontColor=#333333;align=center;strokeColor=#666666;" vertex="1" parent="1xYJOBjyP96TDNRi-POg-1">
          <mxGeometry x="560" y="290" width="120" height="20" as="geometry" />
        </mxCell>
        <mxCell id="1xYJOBjyP96TDNRi-POg-52" value="&lt;p style=&quot;line-height: 90%&quot;&gt;Home Schooling Grp&lt;/p&gt;" style="rounded=0;whiteSpace=wrap;html=1;strokeWidth=1;fillColor=none;fontFamily=Helvetica;fontSize=12;fontColor=#000000;align=center;strokeColor=#000000;" vertex="1" parent="1xYJOBjyP96TDNRi-POg-1">
          <mxGeometry x="580" y="320" width="100" height="20" as="geometry" />
        </mxCell>
        <mxCell id="1xYJOBjyP96TDNRi-POg-53" value="&lt;p style=&quot;line-height: 90%&quot;&gt;Early Learning Grp&lt;/p&gt;" style="rounded=0;whiteSpace=wrap;html=1;strokeWidth=1;fillColor=none;fontFamily=Helvetica;fontSize=12;fontColor=#000000;align=center;strokeColor=#000000;" vertex="1" parent="1xYJOBjyP96TDNRi-POg-1">
          <mxGeometry x="580" y="350" width="100" height="20" as="geometry" />
        </mxCell>
        <mxCell id="1xYJOBjyP96TDNRi-POg-54" value="&lt;p style=&quot;line-height: 90%&quot;&gt;Ministry Guidance Grp&lt;/p&gt;" style="rounded=0;whiteSpace=wrap;html=1;strokeWidth=1;fillColor=none;fontFamily=Helvetica;fontSize=12;fontColor=#000000;align=center;strokeColor=#000000;" vertex="1" parent="1xYJOBjyP96TDNRi-POg-1">
          <mxGeometry x="580" y="380" width="100" height="20" as="geometry" />
        </mxCell>
        <mxCell id="aKtWH_4gdfOqpud3Ktek-2" value="Title/Diagram" parent="1xYJOBjyP96TDNRi-POg-0" />
        <mxCell id="1xYJOBjyP96TDNRi-POg-3" value="&lt;font style=&quot;font-size: 12px&quot;&gt;&lt;span style=&quot;font-size: 12px&quot;&gt;Diagram:&amp;nbsp;&lt;/span&gt;User Context - Groups&lt;/font&gt;" style="text;strokeColor=none;fillColor=none;html=1;fontSize=24;fontStyle=2;verticalAlign=middle;align=left;shadow=0;glass=0;comic=0;opacity=30;fontColor=#808080;" vertex="1" parent="aKtWH_4gdfOqpud3Ktek-2">
          <mxGeometry x="120" y="520" width="560" height="20" as="geometry" />
        </mxCell>
      </root>
    </mxGraphModel>
  </diagram>
</mxfile>
